<?xml version="1.0" encoding="UTF-8"?>
<svg xmlns="http://www.w3.org/2000/svg" xmlns:xlink="http://www.w3.org/1999/xlink" width="330px" height="288px" viewBox="0 0 330 288" version="1.1">
<g id="surface1">
<path style=" stroke:none;fill-rule:nonzero;fill:rgb(10.588235%,11.764706%,21.960784%);fill-opacity:1;" d="M 311.148438 188.90625 C 310.316406 188.90625 309.488281 188.953125 308.960938 188.992188 L 309.246094 186.878906 L 308.976562 186.886719 C 309.132812 186.699219 309.25 186.503906 309.320312 186.292969 C 310.242188 184.878906 311.542969 178.992188 310.535156 165.265625 C 310.496094 164.726562 310.003906 158.460938 309.964844 157.945312 C 308.597656 158.640625 304.75 161.3125 303.011719 163.214844 C 302.832031 158.480469 302.449219 152.988281 301.753906 146.773438 C 301.496094 144.492188 298.660156 144.554688 297.125 144.628906 C 297.035156 144.636719 296.890625 144.578125 296.867188 144.644531 C 296.753906 144.941406 225.308594 142.300781 222.976562 142.300781 C 222.332031 142.300781 223.46875 144.175781 224.023438 153.269531 C 224.085938 154.285156 224.164062 158.191406 224.246094 163.097656 C 224 162.765625 223.644531 162.496094 223.207031 162.339844 L 202.34375 154.722656 C 201.226562 154.316406 199.996094 155.046875 200.019531 156.101562 L 200.710938 187.417969 C 200.722656 187.847656 200.953125 188.226562 201.300781 188.480469 L 195.511719 188.332031 C 194.691406 167.082031 193.363281 133.457031 193.039062 129.574219 C 192.640625 124.828125 191.453125 109.304688 190.582031 97.355469 C 190.582031 97.324219 190.117188 68.097656 177.398438 58.351562 C 183 66.566406 184.777344 76.003906 185.664062 85.828125 C 179.691406 85.726562 158.832031 86.683594 150.210938 90.175781 C 140.660156 94.039062 142.847656 97.300781 142.207031 107.777344 C 141.566406 118.257812 142.207031 166.179688 142.207031 166.179688 C 142.207031 166.179688 149.765625 166.265625 154.664062 168.628906 C 160.011719 171.675781 160.320312 175.535156 160.605469 179.511719 C 158.875 177.101562 153.785156 172.070312 141.585938 172.34375 L 118.820312 172.472656 L 115.8125 172.46875 L 26.621094 172.410156 L 20.910156 172.40625 C 17.625 172.402344 14.960938 174.726562 14.960938 177.59375 L 135.730469 180.097656 L 14.960938 180.65625 L 14.960938 193.460938 C 14.679688 194.421875 14.441406 195.425781 14.25 196.476562 C 13.929688 198.257812 13.769531 200.046875 13.75 201.816406 C 13.652344 211.289062 17.675781 220.160156 23.863281 223.011719 C 25.929688 223.960938 28.015625 224.140625 29.992188 223.660156 C 29.984375 223.664062 29.976562 223.667969 29.96875 223.671875 L 30.316406 223.601562 C 33.03125 222.449219 37.5625 218.863281 38.089844 207.699219 C 38.414062 210.550781 38.238281 218.519531 33.050781 223.046875 L 35.183594 222.617188 C 35.714844 222.539062 40.269531 221.40625 40.789062 221.105469 C 45.625 219.53125 49.75 214.160156 51.164062 206.488281 C 51.621094 203.984375 51.796875 201.457031 51.652344 199.003906 C 51.648438 198.976562 51.667969 198.949219 51.664062 198.925781 C 51.570312 197.449219 51.375 196 51.085938 194.597656 L 51.117188 194.597656 L 64.144531 195.347656 L 66.503906 195.484375 L 69.90625 195.679688 L 70.226562 195.695312 L 70.894531 195.734375 L 71.65625 195.78125 L 72.328125 195.820312 L 77.332031 196.105469 C 77.796875 203.695312 81.214844 210.5 86.25 212.820312 C 87.789062 213.53125 89.347656 213.753906 90.851562 213.554688 C 90.847656 213.554688 90.84375 213.558594 90.839844 213.558594 L 94.777344 212.957031 C 95.25 212.886719 99.640625 212.089844 100.761719 211.796875 L 101.859375 211.550781 L 101.859375 211.539062 C 106.152344 210.179688 109.808594 205.539062 111.0625 198.910156 C 111.117188 198.625 111.15625 198.339844 111.199219 198.054688 L 132.480469 199.277344 L 137.867188 199.046875 C 137.636719 199.945312 137.433594 200.871094 137.261719 201.820312 C 136.839844 204.160156 136.625 206.515625 136.601562 208.84375 C 136.46875 221.296875 141.761719 232.957031 149.898438 236.707031 C 152.621094 237.960938 155.371094 238.191406 157.984375 237.554688 C 157.972656 237.558594 157.960938 237.5625 157.949219 237.566406 L 159.84375 237.125 C 162.78125 235.96875 168.886719 231.738281 170.574219 216.394531 C 170.945312 222.8125 169.910156 231.332031 165 235.921875 L 170.261719 234.699219 C 170.894531 234.550781 171.238281 234.46875 171.863281 234.289062 L 172.144531 234.199219 C 178.503906 232.132812 183.929688 225.070312 185.785156 214.980469 C 186.390625 211.691406 186.621094 208.367188 186.429688 205.144531 C 186.425781 205.109375 186.449219 205.074219 186.445312 205.042969 C 186.445312 205.042969 186.445312 205.039062 186.445312 205.039062 L 196.066406 205.710938 C 196.164062 208.363281 196.871094 210.925781 199.242188 212.015625 C 200.128906 212.652344 201.269531 213.1875 202.746094 213.507812 C 204.195312 213.824219 218.414062 213.191406 235.792969 212.257812 C 236.769531 219.25 240.800781 225.335938 246.550781 227.507812 C 248.425781 228.21875 250.316406 228.441406 252.144531 228.246094 C 252.144531 228.25 252.140625 228.25 252.140625 228.25 L 255.589844 227.863281 C 256.171875 227.796875 260.746094 226.902344 261.3125 226.753906 L 261.320312 226.753906 L 261.320312 226.75 C 266.546875 225.394531 270.972656 220.765625 272.507812 214.144531 C 272.820312 212.804688 272.992188 211.457031 273.042969 210.121094 C 290.171875 209.089844 303.855469 208.214844 304.546875 208.140625 C 306.316406 207.949219 309.039062 207.921875 309.988281 206.402344 C 310.945312 204.867188 311.144531 203.597656 311.757812 201.730469 C 312.371094 199.859375 312.675781 194.652344 312.828125 192.511719 C 312.984375 190.375 312.523438 188.90625 311.148438 188.90625 Z M 27.234375 213.152344 C 27.1875 213.195312 27.140625 213.238281 27.089844 213.277344 C 27.070312 213.296875 27.050781 213.3125 27.027344 213.332031 C 27.027344 213.332031 27.023438 213.332031 27.023438 213.335938 C 27.023438 213.332031 27.027344 213.332031 27.027344 213.332031 C 26.953125 213.386719 26.875 213.433594 26.800781 213.484375 C 26.746094 213.519531 26.6875 213.5625 26.632812 213.59375 C 26.558594 213.632812 26.488281 213.667969 26.414062 213.699219 C 26.347656 213.730469 26.285156 213.765625 26.21875 213.789062 C 26.148438 213.816406 26.078125 213.835938 26.007812 213.859375 C 25.9375 213.878906 25.863281 213.898438 25.789062 213.914062 C 25.722656 213.925781 25.65625 213.9375 25.589844 213.945312 C 25.511719 213.953125 25.433594 213.960938 25.351562 213.960938 C 25.289062 213.960938 25.226562 213.964844 25.164062 213.960938 C 25.078125 213.953125 24.988281 213.941406 24.902344 213.925781 C 24.84375 213.917969 24.789062 213.910156 24.730469 213.894531 C 24.628906 213.871094 24.53125 213.835938 24.433594 213.800781 C 24.386719 213.785156 24.339844 213.769531 24.292969 213.75 C 24.144531 213.6875 24 213.613281 23.851562 213.523438 C 21.164062 211.847656 19.59375 205.980469 20.335938 200.394531 C 21.046875 195.050781 23.625 191.898438 26.207031 193.070312 C 24.9375 194.300781 23.921875 196.628906 23.515625 199.671875 C 22.773438 205.257812 24.347656 211.125 27.03125 212.800781 C 27.105469 212.851562 27.183594 212.890625 27.257812 212.925781 C 27.308594 212.949219 27.355469 212.972656 27.40625 212.992188 L 27.414062 213 C 27.355469 213.054688 27.296875 213.101562 27.234375 213.152344 Z M 155.394531 224 C 155.394531 224 155.390625 224.003906 155.386719 224.003906 C 155.390625 224.003906 155.390625 224 155.394531 224 C 153.914062 224.960938 152.246094 225.121094 150.601562 224.246094 C 146.542969 222.097656 144.171875 214.558594 145.296875 207.390625 C 146.371094 200.53125 150.257812 196.484375 154.15625 197.988281 C 152.238281 199.566406 150.707031 202.554688 150.09375 206.464844 C 148.972656 213.632812 151.347656 221.167969 155.398438 223.320312 C 155.585938 223.421875 155.773438 223.492188 155.964844 223.566406 C 155.777344 223.71875 155.589844 223.871094 155.394531 224 Z M 149.378906 156.21875 C 146.878906 155.902344 147.289062 149.296875 147.628906 146.136719 C 147.730469 145.199219 148.636719 144.484375 149.714844 144.484375 L 152.082031 144.484375 L 151.136719 144.976562 C 151.136719 144.976562 150.054688 144.644531 149.890625 146.171875 C 149.726562 147.699219 149.523438 153.636719 150.648438 154.453125 C 151.921875 155.371094 152.128906 154.464844 152.128906 154.464844 C 152.128906 154.464844 152.667969 156.632812 149.378906 156.21875 Z M 157.207031 129.765625 C 151.800781 129.070312 146.433594 129.835938 145.796875 127.753906 C 145.164062 125.675781 145.28125 97.574219 147.03125 96.046875 C 148.777344 94.519531 147.59375 94.796875 153.351562 93.550781 C 159.113281 92.300781 182.484375 87.859375 183.753906 89.664062 C 184.183594 90.269531 184.554688 91.070312 184.863281 91.863281 C 181.394531 90.992188 160.550781 94.84375 155.320312 95.878906 C 149.761719 96.976562 150.90625 96.734375 149.214844 98.078125 C 147.527344 99.421875 147.414062 124.160156 148.027344 125.992188 C 148.640625 127.824219 153.820312 127.148438 159.035156 127.761719 C 164.253906 128.371094 181.441406 136.191406 186.65625 139.367188 C 188.195312 140.300781 189.140625 140.074219 189.714844 139.003906 C 189.425781 142.871094 188.453125 144.699219 185.824219 142.945312 C 180.417969 139.339844 162.609375 130.457031 157.207031 129.765625 Z M 181.210938 148.21875 C 181.847656 148.773438 189.820312 148.21875 189.820312 148.21875 C 189.820312 148.21875 190.433594 155.988281 189.820312 157.652344 C 189.207031 159.320312 183.914062 157.652344 181.847656 156.265625 C 179.78125 154.878906 180.574219 147.664062 181.210938 148.21875 Z M 190.261719 189.144531 C 190.261719 189.648438 189.792969 190.074219 189.214844 190.09375 L 185.382812 190.21875 C 184.800781 190.238281 184.332031 189.84375 184.332031 189.335938 L 184.332031 186.195312 C 184.332031 185.6875 184.800781 185.261719 185.382812 185.242188 L 189.214844 185.117188 C 189.792969 185.097656 190.261719 185.492188 190.261719 186 Z M 303.550781 166.957031 C 303.699219 166.488281 308.535156 161.675781 308.566406 162.210938 C 308.597656 162.746094 308.722656 171.90625 308.382812 172.105469 C 308.039062 172.308594 303.421875 172.640625 303.421875 172.640625 C 303.421875 172.640625 303.402344 167.425781 303.550781 166.957031 Z M 308.082031 178.609375 C 308.070312 181.570312 307.988281 182.46875 307.71875 182.765625 C 307.492188 183.007812 304.777344 183.207031 303.855469 183.097656 C 303.683594 183.078125 303.550781 182.75 303.554688 182.355469 L 303.605469 175.261719 C 303.605469 175.261719 307.609375 174.648438 307.824219 174.960938 C 308.042969 175.277344 308.097656 175.652344 308.082031 178.609375 Z M 279.007812 160.167969 C 280.8125 160.09375 297.585938 160.652344 299.390625 160.441406 C 299.476562 162.554688 299.53125 166.480469 299.554688 168.394531 C 299.554688 168.394531 292.945312 168.394531 289.523438 168.394531 C 284.171875 168.394531 283.234375 168.628906 283.234375 170.703125 C 283.234375 173.152344 283.414062 174.199219 283.425781 176.609375 C 283.429688 178.15625 283.507812 179.703125 283.546875 181.25 C 283.570312 182.257812 283.390625 183.425781 283.65625 184.402344 C 283.664062 184.4375 283.679688 184.546875 283.703125 184.667969 L 296.394531 184.261719 L 299.503906 184.171875 C 299.53125 185.042969 299.546875 186.046875 299.554688 187.21875 L 229.847656 189.363281 L 229.710938 186.386719 L 246.726562 185.84375 C 246.726562 185.101562 246.734375 178.539062 246.535156 174.390625 C 246.324219 170.058594 246.324219 168.980469 239.558594 169.007812 C 236.679688 169.019531 231.613281 168.816406 229.125 168.898438 L 228.832031 158.96875 C 233.34375 159.34375 275.253906 160.320312 279.007812 160.167969 Z M 297.644531 174.449219 L 288.632812 174.703125 C 288.007812 174.71875 287.484375 174.292969 287.464844 173.746094 L 287.421875 172.664062 C 287.402344 172.117188 287.894531 171.664062 288.519531 171.644531 L 297.535156 171.394531 C 298.160156 171.375 298.683594 171.804688 298.703125 172.351562 L 298.742188 173.429688 C 298.761719 173.976562 298.269531 174.433594 297.644531 174.449219 Z M 298.742188 179.765625 C 298.761719 180.308594 298.269531 180.765625 297.644531 180.785156 L 288.632812 181.035156 C 288.007812 181.054688 287.484375 180.625 287.464844 180.078125 L 287.421875 178.996094 C 287.402344 178.453125 287.894531 177.996094 288.519531 177.976562 L 297.535156 177.726562 C 298.160156 177.710938 298.683594 178.136719 298.703125 178.683594 Z M 295.335938 195.300781 L 295.335938 200.746094 C 295.335938 201.25 294.855469 201.691406 294.261719 201.726562 L 282.929688 202.402344 C 282.335938 202.441406 281.855469 202.058594 281.855469 201.550781 L 281.855469 196.105469 C 281.855469 195.601562 282.335938 195.160156 282.929688 195.125 L 294.261719 194.449219 C 294.855469 194.410156 295.335938 194.792969 295.335938 195.300781 Z M 250.441406 197.25 L 250.441406 202.695312 C 250.441406 203.199219 249.960938 203.640625 249.367188 203.675781 L 238.035156 204.355469 C 237.441406 204.390625 236.960938 204.007812 236.960938 203.5 L 236.960938 198.054688 C 236.960938 197.550781 237.441406 197.109375 238.035156 197.074219 L 249.367188 196.398438 C 249.960938 196.363281 250.441406 196.742188 250.441406 197.25 Z M 229.25 175.234375 L 229.292969 173.765625 C 229.308594 173.304688 229.566406 172.921875 229.875 172.917969 L 243.675781 172.640625 C 243.980469 172.636719 244.21875 173.003906 244.203125 173.46875 L 244.164062 174.933594 C 244.148438 175.398438 243.890625 175.777344 243.582031 175.785156 L 229.78125 176.058594 C 229.476562 176.066406 229.238281 175.695312 229.25 175.234375 Z M 229.316406 189.953125 L 229.1875 189.949219 L 229.1875 189.84375 L 229.3125 189.835938 Z M 229.625 181.148438 C 229.636719 180.6875 229.894531 180.308594 230.203125 180.300781 L 244.003906 180.023438 C 244.3125 180.019531 244.546875 180.386719 244.535156 180.851562 L 244.492188 182.316406 C 244.476562 182.78125 244.21875 183.160156 243.914062 183.167969 L 230.113281 183.441406 C 229.804688 183.449219 229.566406 183.078125 229.582031 182.617188 Z M 222.976562 197.851562 L 222.976562 203.296875 C 222.976562 203.800781 222.496094 204.242188 221.902344 204.277344 L 210.570312 204.957031 C 209.976562 204.992188 209.496094 204.609375 209.496094 204.105469 L 209.496094 198.65625 C 209.496094 198.152344 209.976562 197.714844 210.570312 197.675781 L 221.902344 197 C 222.496094 196.964844 222.976562 197.34375 222.976562 197.851562 Z M 206.851562 186.949219 C 205.851562 186.601562 205.554688 185.539062 205.5 182.046875 C 205.445312 178.558594 205.652344 178.113281 206.453125 177.742188 C 207.253906 177.371094 222.039062 178.09375 222.039062 178.09375 L 222.222656 185.890625 C 222.234375 186.355469 221.746094 186.746094 221.117188 186.769531 C 217.710938 186.894531 207.679688 187.238281 206.851562 186.949219 Z M 204.886719 159.894531 C 204.988281 159.167969 221.28125 165.726562 221.78125 166.367188 C 222.285156 167.003906 222.21875 174.113281 222.21875 174.113281 C 222.21875 174.113281 206.660156 173.65625 205.511719 173.382812 C 204.363281 173.109375 204.78125 160.625 204.886719 159.894531 Z M 310.203125 203.929688 C 310.074219 204.601562 309.449219 205.109375 308.675781 205.171875 C 300.902344 205.816406 260.371094 209.109375 237.945312 209.964844 C 215.734375 210.808594 200.753906 211.164062 200.75 208.824219 C 200.75 207.960938 240.039062 208.304688 276.769531 205.589844 C 301.988281 203.726562 308.371094 202.753906 309.984375 202.378906 C 310.234375 202.320312 310.46875 202.511719 310.425781 202.734375 Z M 311.050781 198.472656 C 311.050781 198.976562 310.582031 199.402344 310 199.421875 L 306.167969 199.546875 C 305.589844 199.566406 305.121094 199.171875 305.121094 198.667969 L 305.121094 195.523438 C 305.121094 195.015625 305.589844 194.589844 306.167969 194.574219 L 310 194.445312 C 310.582031 194.429688 311.050781 194.824219 311.050781 195.328125 Z M 311.050781 198.472656 "/>
<path style=" stroke:none;fill-rule:nonzero;fill:rgb(10.588235%,11.764706%,21.960784%);fill-opacity:1;" d="M 205.417969 85.65625 C 193.832031 86.25 195.402344 85.769531 195.878906 94.773438 C 196.355469 103.777344 197.792969 121.222656 198.476562 123.800781 C 199.15625 126.378906 198.722656 132.722656 213.714844 135.097656 C 228.707031 137.476562 267.09375 139.460938 275.496094 139.261719 C 283.902344 139.0625 297.738281 139.996094 302.300781 138.46875 C 306.863281 136.941406 306.84375 136.332031 304.738281 129.214844 C 302.632812 122.097656 293.65625 96.734375 290.9375 94.050781 C 288.21875 91.367188 217 85.058594 205.417969 85.65625 Z M 205.417969 85.65625 "/>
<path style=" stroke:none;fill-rule:nonzero;fill:rgb(10.588235%,11.764706%,21.960784%);fill-opacity:1;" d="M 273.0625 62.332031 C 274.566406 61.667969 189.148438 49.65625 156.027344 50.113281 C 153.046875 50.15625 150.179688 64.839844 147.6875 72.292969 C 145.195312 79.746094 142.960938 89.40625 142.960938 89.40625 C 142.960938 89.40625 151.910156 64.367188 155.195312 60.839844 C 165.191406 50.09375 262.164062 60.777344 273.0625 62.332031 Z M 273.0625 62.332031 "/>
<path style=" stroke:none;fill-rule:nonzero;fill:rgb(10.588235%,11.764706%,21.960784%);fill-opacity:1;" d="M 252.410156 185.664062 L 278.292969 184.839844 C 278.230469 184.773438 278.1875 184.726562 278.183594 184.714844 C 278.183594 184.714844 278.335938 175.761719 277.878906 171.515625 C 277.492188 167.90625 275.4375 168.320312 266.257812 168.320312 C 262.664062 168.320312 258.433594 168.539062 253.875 168.789062 C 251.800781 168.902344 252.101562 170.453125 252.101562 174.351562 C 252.101562 177.867188 252.414062 182.46875 252.410156 185.664062 Z M 254.566406 173.828125 C 254.566406 173.363281 254.929688 172.976562 255.378906 172.964844 L 275.589844 172.382812 C 276.039062 172.371094 276.402344 172.734375 276.402344 173.199219 L 276.402344 174.664062 C 276.402344 175.128906 276.039062 175.511719 275.589844 175.527344 L 255.378906 176.109375 C 254.929688 176.121094 254.566406 175.753906 254.566406 175.292969 Z M 254.566406 180.238281 C 254.566406 179.773438 254.929688 179.390625 255.378906 179.375 L 275.589844 178.792969 C 276.039062 178.78125 276.402344 179.144531 276.402344 179.609375 L 276.402344 181.074219 C 276.402344 181.539062 276.039062 181.925781 275.589844 181.9375 L 255.378906 182.519531 C 254.929688 182.53125 254.566406 182.167969 254.566406 181.703125 Z M 254.566406 180.238281 "/>
<path style=" stroke:none;fill-rule:nonzero;fill:rgb(10.588235%,11.764706%,21.960784%);fill-opacity:1;" d="M 315.839844 107.929688 C 315.683594 106.351562 311.617188 104.945312 309.390625 104.277344 C 307.164062 103.605469 306.5625 106.085938 306.5625 106.085938 C 306.5625 106.085938 306.476562 120.230469 306.539062 125.300781 C 306.550781 126.261719 307.46875 127.023438 308.570312 126.984375 L 310.90625 126.898438 C 311.617188 126.875 312.214844 127.359375 312.238281 127.980469 C 312.320312 130.574219 312.402344 137.621094 312.160156 138.628906 C 311.851562 139.902344 307.644531 139.382812 307.644531 139.382812 L 308.085938 142.777344 C 308.085938 142.777344 310.816406 142.53125 312.230469 142.1875 C 313.425781 141.898438 314.148438 141.125 314.53125 139.996094 C 314.917969 138.871094 314.6875 127.054688 314.6875 127.054688 C 314.6875 127.054688 314.992188 126.320312 315.839844 125.71875 C 316.683594 125.113281 315.992188 109.503906 315.839844 107.929688 Z M 315.839844 107.929688 "/>
<path style=" stroke:none;fill-rule:nonzero;fill:rgb(10.588235%,11.764706%,21.960784%);fill-opacity:1;" d="M 153.933594 80.179688 L 150.332031 81.09375 C 149.785156 81.234375 149.34375 81.757812 149.34375 82.261719 L 149.34375 85.40625 C 149.34375 85.910156 149.785156 86.210938 150.332031 86.070312 L 153.933594 85.15625 C 154.480469 85.019531 154.921875 84.496094 154.921875 83.988281 L 154.921875 80.847656 C 154.921875 80.339844 154.480469 80.042969 153.933594 80.179688 Z M 153.933594 80.179688 "/>
<path style=" stroke:none;fill-rule:nonzero;fill:rgb(10.588235%,11.764706%,21.960784%);fill-opacity:1;" d="M 202.664062 69.753906 C 201.097656 69.753906 201.335938 72.90625 202.902344 72.90625 C 218.023438 72.90625 251.40625 75.09375 280.167969 77.519531 C 255.234375 72.910156 211.128906 69.484375 202.664062 69.753906 Z M 202.664062 69.753906 "/>
</g>
</svg>
